# xmcd CD database file
# Copyright (C) 1993-1998 Ti Kan
# 
# Track frame offsets:
#     150
#     11223
#     22263
#     35435
#     46735
#     58115
#     68873
#     80460
#     90733
#     101220
#     112683
#     122755
#     131760
#     144550
#     156425
#     168183
#     178833
#     189723
#     199473
#     211495
# 
# Disc length: 2962 seconds
# 
# Revision: 1
# Processed by: cddbd v1.4b41PL1 Copyright (c) Steve Scherf et al.
# Submitted via: DiscPlay 4.0.4
# 
DISCID=290b9014
DTITLE=Patsy Cline - The Legendary Patsy Cline
DYEAR=1900
DGENRE=
TTITLE0=I Cried All The Way To The Alter
TTITLE1=Honky Tonk Merry Go Round
TTITLE2=If I Could See The World
TTITLE3=Cry Not For Me
TTITLE4=Hungry For Love
TTITLE5=I Love You Honey
TTITLE6=Walkin' After Midnight
TTITLE7=Too Many Secrets
TTITLE8=Three Cigarettes In An Ashtray
TTITLE9=Just Out Of Reach
TTITLE10=Turn The Cards Slowly
TTITLE11=Try Again
TTITLE12=Fingerprints
TTITLE13=If I Could Stay Asleep
TTITLE14=I've Loved And Lost Again
TTITLE15=I Don't Wanta
TTITLE16=Stop Look And Listen
TTITLE17=Love Me, Love Me Honey Do
TTITLE18=Never Know More
TTITLE19=I Can See An Angel
EXTD=
EXTT0=
EXTT1=
EXTT2=
EXTT3=
EXTT4=
EXTT5=
EXTT6=
EXTT7=
EXTT8=
EXTT9=
EXTT10=
EXTT11=
EXTT12=
EXTT13=
EXTT14=
EXTT15=
EXTT16=
EXTT17=
EXTT18=
EXTT19=
PLAYORDER=
